<svg width="105" height="94" viewBox="0 0 105 94" fill="none" xmlns="http://www.w3.org/2000/svg">
<path d="M20.4195 11.75H2.92095C1.31691 11.75 0.0045166 13.0719 0.0045166 14.6875V79.3125C0.0045166 80.9281 1.31691 82.25 2.92095 82.25H20.4195C22.0236 82.25 23.336 80.9281 23.336 79.3125V14.6875C23.336 13.0719 22.0236 11.75 20.4195 11.75ZM17.5031 29.375H5.83738V23.5H17.5031V29.375Z" fill="#3383EA"/>
<path d="M49.5838 11.75H32.0853C30.4812 11.75 29.1688 13.0719 29.1688 14.6875V79.3125C29.1688 80.9281 30.4812 82.25 32.0853 82.25H49.5838C51.1879 82.25 52.5003 80.9281 52.5003 79.3125V14.6875C52.5003 13.0719 51.1879 11.75 49.5838 11.75ZM46.6674 29.375H35.0017V23.5H46.6674V29.375Z" fill="#3383EA"/>
<path d="M69.7301 16.2914L54.1038 24.2226C53.4156 24.575 52.8934 25.187 52.6509 25.9253C52.4084 26.6635 52.4652 27.4684 52.8089 28.1647L79.0568 80.6285C79.4067 81.3217 80.0142 81.8477 80.7472 82.0919C81.4802 82.3362 82.2793 82.279 82.9707 81.9327L98.5969 74.0015C99.2851 73.6491 99.8073 73.0371 100.05 72.2988C100.292 71.5606 100.236 70.7557 99.8918 70.0594L73.6439 17.5956C73.294 16.9024 72.6865 16.3764 71.9535 16.1322C71.2205 15.8879 70.4214 15.9451 69.7301 16.2914Z" fill="#3383EA"/>
<path d="M84.581 79.3125C84.581 80.0916 84.2738 80.8387 83.7268 81.3896C83.1799 81.9405 82.4381 82.25 81.6646 82.25C80.8911 82.25 80.1493 81.9405 79.6024 81.3896C79.0554 80.8387 78.7482 80.0916 78.7482 79.3125C78.7482 78.5334 79.0554 77.7863 79.6024 77.2354C80.1493 76.6845 80.8911 76.375 81.6646 76.375C82.4381 76.375 83.1799 76.6845 83.7268 77.2354C84.2738 77.7863 84.581 78.5334 84.581 79.3125Z"/>
</svg>
