<svg width="80" height="94" viewBox="0 0 80 94" fill="none" xmlns="http://www.w3.org/2000/svg">
<path d="M28.7021 -1.06208e-05C28.1774 0.0780198 27.6762 0.270574 27.2342 0.563989C27.2342 0.563989 22.6608 3.44184 17.7439 6.55468C12.8269 9.66391 7.35685 13.0913 6.10593 13.7855C6.02877 13.8189 5.9528 13.8551 5.87816 13.8939C1.33724 16.6958 0.393624 21.2729 0.230932 23.8398C0.220086 23.9591 0.230932 24.0568 0.230932 24.1833C0.191163 25.145 0.230932 25.7632 0.230932 25.7632V72.991C0.230932 79.853 8.23178 83.1538 15.8241 83.1538C18.3549 83.1538 20.8856 82.7453 23.0549 82.0222C24.501 81.2991 25.5386 79.853 25.5386 78.4068V40.4453C25.5386 32.1299 27.3463 28.2253 32.7694 24.9715C34.2155 24.2484 49.3785 13.7818 49.3785 13.7818C50.1015 13.0588 50.8463 11.5909 50.8463 10.5063V10.1665C50.8463 8.7203 50.1232 7.61399 49.0386 6.89091C47.954 6.16784 46.5079 6.16784 45.4232 6.89091C45.0617 7.25245 23.0079 22.1008 18.3079 24.6316C13.6079 27.5239 9.22239 28.2217 8.13778 26.7755C7.80155 26.4393 7.5087 25.4089 7.4617 24.4038V24.2918V24.1761C7.46532 23.1927 7.71839 21.3416 9.72132 20.1088C11.7532 18.9771 16.7966 15.7558 21.6991 12.6538C23.7707 11.3415 24.0274 11.2005 25.6507 10.1665C25.8644 11.0497 26.4028 11.82 27.1589 12.3242C27.9149 12.8283 28.833 13.0293 29.7305 12.8871C30.628 12.7449 31.4391 12.2699 32.0022 11.5567C32.5653 10.8435 32.8392 9.94446 32.7694 9.03845V3.61537C32.7734 3.10005 32.6673 2.58983 32.458 2.11889C32.2487 1.64796 31.9412 1.2272 31.556 0.884831C31.1709 0.542461 30.717 0.286389 30.2248 0.133781C29.7325 -0.0188268 29.2134 -0.0644434 28.7021 -1.06208e-05ZM57.6252 12.6538C57.0502 12.7495 56.507 12.9826 56.0416 13.3335C56.0416 13.3335 37.8418 25.5788 34.6892 27.6794C34.6509 27.7171 34.6136 27.7557 34.5771 27.7951C31.9595 29.7582 30.4085 32.0938 29.718 34.2304C29.2299 35.7453 29.1576 36.9818 29.154 37.9615V39.0931C29.1488 39.2052 29.1488 39.3174 29.154 39.4294V83.1538C29.154 90.0231 37.0645 94 44.2952 94C47.5491 94 50.4848 93.2986 52.654 91.8524C56.9925 89.3217 77.9617 72.9874 77.9617 72.9874C79.0463 72.2643 79.7694 71.2448 79.7694 70.1601V23.1601C79.7694 21.3525 79.068 20.2678 77.6219 19.5448C76.5372 18.8217 74.7549 19.1615 73.6702 19.8846C67.8856 24.2231 52.3142 36.472 48.6988 38.6412C43.6372 41.5335 38.8685 42.2566 37.0609 40.4489C36.3378 39.7258 36.3848 39.0461 36.3848 37.9615C36.4065 37.3397 36.4752 36.8046 36.6125 36.378C36.815 35.7489 37.2272 34.9752 38.7565 33.7821C38.8288 33.7243 38.7926 33.7279 38.8685 33.6701C41.4825 31.9238 49.4761 26.4755 54.6895 22.9324C54.9848 23.7248 55.5486 24.3885 56.2827 24.8082C57.0169 25.228 57.8749 25.3771 58.7076 25.2296C59.5402 25.0822 60.2949 24.6475 60.8402 24.0012C61.3856 23.3549 61.6872 22.5379 61.6925 21.6923V16.2692C61.6965 15.7539 61.5903 15.2437 61.3811 14.7727C61.1718 14.3018 60.8643 13.881 60.4791 13.5387C60.094 13.1963 59.64 12.9402 59.1478 12.7876C58.6556 12.635 58.1365 12.5894 57.6252 12.6538ZM72.5386 39.0931V46.3239L54.4617 60.3299V53.0991L72.5386 39.0931Z"/>
</svg>
