<svg width="82" height="70" viewBox="0 0 82 70" fill="none" xmlns="http://www.w3.org/2000/svg">
<path fill-rule="evenodd" clip-rule="evenodd" d="M26.25 54.8334L39 42.5834C37.5889 42.4255 36.1702 42.3421 34.75 42.3334C23.4025 42.3334 0.75 47.9167 0.75 59V67.3334H39L26.25 54.8334ZM34.75 34C44.1425 34 51.75 26.5417 51.75 17.3334C51.75 8.12502 44.1425 0.666687 34.75 0.666687C25.3575 0.666687 17.75 8.12502 17.75 17.3334C17.75 26.5417 25.3575 34 34.75 34ZM53.7475 69.4167L39 54.8334L44.95 48.9584L53.7475 57.625L75.55 36.0834L81.5 41.9584L53.7475 69.4167Z" fill="#3383EA"/>
</svg>
