<svg width="91" height="76" viewBox="0 0 91 76" fill="none" xmlns="http://www.w3.org/2000/svg">
<path d="M51.7917 0.5C41.5477 0.5 31.7233 4.45088 24.4797 11.4835C17.2361 18.5161 13.1667 28.0544 13.1667 38H0.291668L16.9863 54.2083L17.2867 54.7917L34.625 38H21.75C21.75 21.875 35.1829 8.83333 51.7917 8.83333C68.4004 8.83333 81.8333 21.875 81.8333 38C81.8333 54.125 68.4004 67.1667 51.7917 67.1667C43.5088 67.1667 35.9983 63.875 30.5908 58.5833L24.4967 64.5C28.0734 67.9917 32.3268 70.7614 37.0114 72.6494C41.6961 74.5373 46.7194 75.5061 51.7917 75.5C62.0357 75.5 71.8601 71.5491 79.1037 64.5165C86.3473 57.4839 90.4167 47.9456 90.4167 38C90.4167 28.0544 86.3473 18.5161 79.1037 11.4835C71.8601 4.45088 62.0357 0.5 51.7917 0.5ZM47.5 21.3333V42.1667L65.8683 52.75L68.9583 47.7083L53.9375 39.0417V21.3333H47.5Z" fill="#3383EA"/>
</svg>
