<svg width="17" height="28" viewBox="0 0 17 28" fill="none" xmlns="http://www.w3.org/2000/svg">
<path d="M15.6667 16.625C15.2799 15.9387 14.7564 15.339 14.1286 14.8631C13.5007 14.3872 12.7819 14.0452 12.0167 13.8583C11.2986 13.6429 10.5698 13.4648 9.83333 13.325V5.76663C11.2976 5.92369 12.6945 6.46408 13.8833 7.33329C13.9654 7.40607 14.061 7.46196 14.1647 7.49779C14.2684 7.53361 14.3781 7.54867 14.4876 7.54209C14.5971 7.53551 14.7042 7.50743 14.8028 7.45945C14.9015 7.41147 14.9897 7.34454 15.0625 7.26246C15.1353 7.18038 15.1912 7.08478 15.227 6.9811C15.2628 6.87742 15.2779 6.7677 15.2713 6.65821C15.2647 6.54871 15.2366 6.44158 15.1887 6.34294C15.1407 6.24429 15.0737 6.15607 14.9917 6.08329C13.5002 4.93463 11.7093 4.24024 9.83333 4.08329V1.49996C9.83333 1.27895 9.74553 1.06698 9.58925 0.910704C9.43297 0.754423 9.22101 0.666626 8.99999 0.666626C8.77898 0.666626 8.56702 0.754423 8.41074 0.910704C8.25446 1.06698 8.16666 1.27895 8.16666 1.49996V3.99996C4.49999 4.08329 2.47499 5.90829 1.85833 7.48329C1.44694 8.4975 1.40786 9.62459 1.748 10.6649C2.08815 11.7051 2.78556 12.5914 3.71666 13.1666C5.07199 13.9928 6.59007 14.5159 8.16666 14.7V22.3333C5.99109 22.2238 3.90698 21.424 2.21666 20.05C2.14123 19.9602 2.0477 19.8873 1.94218 19.8362C1.83667 19.785 1.72155 19.7567 1.60435 19.7531C1.48715 19.7495 1.37051 19.7707 1.26204 19.8152C1.15358 19.8598 1.05574 19.9267 0.974917 20.0117C0.894095 20.0966 0.83211 20.1977 0.793014 20.3082C0.753919 20.4188 0.738593 20.5363 0.748039 20.6532C0.757485 20.7701 0.79149 20.8836 0.84783 20.9865C0.90417 21.0893 0.981578 21.1791 1.07499 21.25C3.06827 22.9281 5.56312 23.8956 8.16666 24V26.5C8.16666 26.721 8.25446 26.9329 8.41074 27.0892C8.56702 27.2455 8.77898 27.3333 8.99999 27.3333C9.22101 27.3333 9.43297 27.2455 9.58925 27.0892C9.74553 26.9329 9.83333 26.721 9.83333 26.5V24C12.1833 23.8416 14.8917 23.0916 15.9167 20.0333C16.1021 19.4768 16.1755 18.8891 16.1326 18.3041C16.0897 17.7191 15.9313 17.1484 15.6667 16.625ZM4.65833 11.7666C4.04982 11.4044 3.59049 10.837 3.36289 10.1664C3.13529 9.49585 3.15435 8.76607 3.41666 8.10829C3.50833 7.85829 4.44166 5.76663 8.16666 5.66663V13C6.92353 12.84 5.72809 12.4197 4.65833 11.7666ZM14.3333 19.4666C13.7333 21.25 12.4 22.1083 9.83333 22.3V15.025C10.3667 15.1416 10.9167 15.275 11.5 15.45C12.051 15.5751 12.5709 15.811 13.0279 16.1434C13.4849 16.4758 13.8695 16.8976 14.1583 17.3833C14.4852 18.0286 14.5479 18.7758 14.3333 19.4666Z" fill="white"/>
</svg>
