<svg width="40" height="40" viewBox="0 0 40 40" fill="none" xmlns="http://www.w3.org/2000/svg">
<path d="M35.5553 6.66675H4.44418C3.85481 6.66675 3.28958 6.90087 2.87283 7.31762C2.45608 7.73437 2.22195 8.2996 2.22195 8.88897V31.1112C2.22195 31.7006 2.45608 32.2658 2.87283 32.6825C3.28958 33.0993 3.85481 33.3334 4.44418 33.3334H35.5553C36.1447 33.3334 36.7099 33.0993 37.1266 32.6825C37.5434 32.2658 37.7775 31.7006 37.7775 31.1112V8.88897C37.7775 8.2996 37.5434 7.73437 37.1266 7.31762C36.7099 6.90087 36.1447 6.66675 35.5553 6.66675ZM33.8442 31.1112H6.28862L14.0664 23.0667L12.4664 21.5223L4.44418 29.8223V10.5779L18.2553 24.3223C18.6717 24.7362 19.2349 24.9685 19.822 24.9685C20.409 24.9685 20.9723 24.7362 21.3886 24.3223L35.5553 10.2334V29.6779L27.3775 21.5001L25.8108 23.0667L33.8442 31.1112ZM5.89973 8.88897H33.7553L19.822 22.7445L5.89973 8.88897Z" fill="#3383EA"/>
</svg>
