<svg width="29" height="29" viewBox="0 0 29 29" fill="none" xmlns="http://www.w3.org/2000/svg">
<path d="M14.5 -0.0307617C6.48789 -0.0307617 -0.0316772 6.48699 -0.0316772 14.5C-0.0316772 22.5131 6.48789 29.0309 14.5 29.0309C22.5122 29.0309 29.0318 22.5131 29.0318 14.5C29.0318 6.48699 22.5122 -0.0307617 14.5 -0.0307617ZM14.5 28.063C7.02167 28.063 0.93801 21.9784 0.93801 14.5C0.93801 7.02168 7.02167 0.937113 14.5 0.937113C21.9784 0.937113 28.0621 7.02168 28.0621 14.5C28.0621 21.9784 21.9784 28.063 14.5 28.063Z" fill="#3383EA"/>
<path d="M17.6719 6.34366H15.2541C12.1746 6.31285 11.7813 8.2187 11.7813 10.2813V11.7812H10.4219C10.3605 11.773 10.298 11.779 10.2393 11.7989C10.1806 11.8188 10.1272 11.8519 10.0834 11.8957C10.0396 11.9396 10.0064 11.9929 9.98655 12.0516C9.96668 12.1103 9.96061 12.1728 9.96882 12.2343V14.953C9.96061 15.0145 9.96668 15.077 9.98655 15.1357C10.0064 15.1944 10.0396 15.2478 10.0834 15.2916C10.1272 15.3354 10.1806 15.3686 10.2393 15.3884C10.298 15.4083 10.3605 15.4144 10.4219 15.4062H11.7813V22.203C11.7738 22.2646 11.7804 22.3271 11.8007 22.3857C11.8209 22.4443 11.8544 22.4975 11.8983 22.5412C11.9423 22.5849 11.9957 22.618 12.0544 22.6379C12.1132 22.6578 12.1757 22.6641 12.2372 22.6562H15.0058C15.2731 22.687 15.4897 22.4704 15.4045 22.203L15.4063 15.4062H17.6719C17.7334 15.4144 17.7959 15.4083 17.8546 15.3884C17.9133 15.3686 17.9667 15.3354 18.0105 15.2916C18.0543 15.2478 18.0875 15.1944 18.1073 15.1357C18.1272 15.077 18.1333 15.0145 18.1251 14.953V12.2343C18.1333 12.1728 18.1272 12.1103 18.1073 12.0516C18.0875 11.9929 18.0543 11.9396 18.0105 11.8957C17.9667 11.8519 17.9133 11.8188 17.8546 11.7989C17.7959 11.779 17.7334 11.773 17.6719 11.7812H15.4036L15.4063 10.4218C15.4942 9.8427 15.4942 9.93695 16.0316 9.96866H17.6529C17.7789 9.94057 17.913 9.95598 18.0073 9.86445C18.1015 9.77291 18.1559 9.64785 18.1242 9.51554V6.79679C18.1325 6.7354 18.1266 6.6729 18.1068 6.61418C18.0871 6.55545 18.054 6.50208 18.0103 6.45823C17.9665 6.41437 17.9132 6.38121 17.8545 6.36134C17.7958 6.34147 17.7334 6.33542 17.6719 6.34366ZM17.1871 9.01166L16.0507 8.96816C14.6433 8.96816 14.5254 9.73213 14.5254 10.5142L14.5218 12.2325C14.5217 12.2961 14.5341 12.3591 14.5584 12.4179C14.5827 12.4768 14.6183 12.5302 14.6632 12.5753C14.7082 12.6203 14.7616 12.656 14.8204 12.6804C14.8791 12.7048 14.9421 12.7173 15.0058 12.7173H17.2188V14.4682H15.0076C14.8791 14.4682 14.756 14.5192 14.6651 14.6099C14.5742 14.7006 14.523 14.8237 14.5227 14.9521L14.5218 21.7499H12.6876V14.953C12.6876 14.6857 12.5054 14.4691 12.2372 14.4691H10.8751V12.7182H12.2372C12.3008 12.7183 12.3637 12.7059 12.4225 12.6816C12.4813 12.6574 12.5347 12.6218 12.5797 12.5769C12.6704 12.4853 12.6867 12.3621 12.6867 12.2334V10.2804C12.6867 8.2486 13.0972 7.28073 15.2532 7.28073H17.1862V9.01166H17.1871Z" fill="#3383EA"/>
</svg>
