<svg width="103" height="94" viewBox="0 0 103 94" fill="none" xmlns="http://www.w3.org/2000/svg">
<path d="M101.111 47C101.111 72.0079 78.9385 92.5 51.3053 92.5C23.6721 92.5 1.5 72.0079 1.5 47C1.5 21.9921 23.6721 1.5 51.3053 1.5C78.9385 1.5 101.111 21.9921 101.111 47Z" stroke="#3383EA" stroke-width="3"/>
<path d="M40.25 55.9375L34.625 61.45V45.625H40.25V55.9375ZM49.625 52.4875L46.6813 49.975L44 52.45V38.125H49.625V52.4875ZM59 49.375L53.375 55V30.625H59V49.375ZM64.2687 49.0188L60.875 45.625H70.25V55L66.8937 51.6437L53.375 65.05L46.8687 59.3875L39.7812 66.25H34.625L46.7563 54.3625L53.375 59.95" fill="#3383EA"/>
</svg>
