<svg width="103" height="94" viewBox="0 0 103 94" fill="none" xmlns="http://www.w3.org/2000/svg">
<path d="M65 61C62.5025 61 60.5 63.0025 60.5 65.5C60.5 66.6935 60.9741 67.8381 61.818 68.682C62.6619 69.5259 63.8065 70 65 70C66.1935 70 67.3381 69.5259 68.182 68.682C69.0259 67.8381 69.5 66.6935 69.5 65.5C69.5 64.3065 69.0259 63.1619 68.182 62.318C67.3381 61.4741 66.1935 61 65 61ZM29 25V29.5H33.5L41.6 46.5775L38.54 52.09C38.2025 52.72 38 53.4625 38 54.25C38 55.4435 38.4741 56.5881 39.318 57.432C40.1619 58.2759 41.3065 58.75 42.5 58.75H69.5V54.25H43.445C43.2958 54.25 43.1527 54.1907 43.0473 54.0852C42.9418 53.9798 42.8825 53.8367 42.8825 53.6875C42.8825 53.575 42.905 53.485 42.95 53.4175L44.975 49.75H61.7375C63.425 49.75 64.91 48.805 65.675 47.4325L73.73 32.875C73.8875 32.515 74 32.1325 74 31.75C74 31.1533 73.7629 30.581 73.341 30.159C72.919 29.7371 72.3467 29.5 71.75 29.5H38.4725L36.3575 25H29ZM42.5 61C40.0025 61 38 63.0025 38 65.5C38 66.6935 38.4741 67.8381 39.318 68.682C40.1619 69.5259 41.3065 70 42.5 70C43.6935 70 44.8381 69.5259 45.682 68.682C46.5259 67.8381 47 66.6935 47 65.5C47 64.3065 46.5259 63.1619 45.682 62.318C44.8381 61.4741 43.6935 61 42.5 61Z" fill="#3383EA"/>
<path d="M101.111 47C101.111 72.0079 78.9385 92.5 51.3053 92.5C23.6721 92.5 1.5 72.0079 1.5 47C1.5 21.9921 23.6721 1.5 51.3053 1.5C78.9385 1.5 101.111 21.9921 101.111 47Z" stroke="#3383EA" stroke-width="3"/>
</svg>
