<svg width="103" height="94" viewBox="0 0 103 94" fill="none" xmlns="http://www.w3.org/2000/svg">
<path d="M101.111 47C101.111 72.0079 78.9385 92.5 51.3053 92.5C23.6721 92.5 1.5 72.0079 1.5 47C1.5 21.9921 23.6721 1.5 51.3053 1.5C78.9385 1.5 101.111 21.9921 101.111 47Z" stroke="#3383EA" stroke-width="3"/>
<path d="M48.8836 35.1603C48.8836 40.5124 44.5486 44.8473 39.1966 44.8473C33.8445 44.8473 29.5095 40.5124 29.5095 35.1603C29.5095 29.8082 33.8445 25.4733 39.1966 25.4733C44.5486 25.4733 48.8836 29.8082 48.8836 35.1603ZM48.8836 51.4345V64.2214H22.2443V59.3778C22.2443 54.0258 29.8244 49.6908 39.1966 49.6908C42.8292 49.6908 46.147 50.3447 48.8836 51.4345V51.4345ZM80.3664 64.2214H53.7271V23.0515H80.3664V64.2214ZM60.9924 43.6364C60.9924 42.0307 61.6302 40.4908 62.7656 39.3553C63.9011 38.2199 65.441 37.582 67.0467 37.582C68.6525 37.582 70.1924 38.2199 71.3278 39.3553C72.4633 40.4908 73.1011 42.0307 73.1011 43.6364C73.1011 45.2422 72.4633 46.7821 71.3278 47.9175C70.1924 49.053 68.6525 49.6908 67.0467 49.6908C65.441 49.6908 63.9011 49.053 62.7656 47.9175C61.6302 46.7821 60.9924 45.2422 60.9924 43.6364V43.6364ZM75.5229 32.7385C74.2383 32.7385 73.0063 32.2282 72.098 31.3199C71.1897 30.4116 70.6794 29.1796 70.6794 27.895H63.4141C63.4141 30.5832 61.2587 32.7385 58.5706 32.7385V54.5343C59.8552 54.5343 61.0871 55.0446 61.9955 55.953C62.9038 56.8613 63.4141 58.0933 63.4141 59.3778H70.6794C70.6794 56.7139 72.859 54.5343 75.5229 54.5343V32.7385Z" fill="#3383EA"/>
</svg>
