<svg width="103" height="94" viewBox="0 0 103 94" fill="none" xmlns="http://www.w3.org/2000/svg">
<path d="M101.111 47C101.111 72.0079 78.9385 92.5 51.3053 92.5C23.6721 92.5 1.5 72.0079 1.5 47C1.5 21.9921 23.6721 1.5 51.3053 1.5C78.9385 1.5 101.111 21.9921 101.111 47Z" stroke="#3383EA" stroke-width="3"/>
<path d="M46.75 35.375V44.75H44.875V35.375H37.375V50.375H44.875V48.5H46.75V57.875H44.875V52.25H37.375V61.625H50.5V57.875H52.375V61.625H63.625V57.875H67.375V65.375H33.625V31.625H67.375V54.125H63.625V44.75H52.375V54.125H50.5V42.875H63.625V35.375H46.75Z" fill="#3383EA"/>
</svg>
