<svg width="41" height="116" viewBox="0 0 41 116" fill="none" xmlns="http://www.w3.org/2000/svg">
<path d="M24.4294 0.598272C24.1465 0.885584 24.092 1.0585 24.064 1.72868C24.0493 2.17058 24.0827 6.53389 24.1415 11.4108C24.2003 16.2877 24.1959 20.3494 24.1481 20.4081C24.0884 20.4816 18.9946 24.1564 12.8258 28.5777C6.66811 33.0006 1.4438 36.8208 1.22971 37.0689C0.657197 37.7576 0.390628 38.5243 0.268532 39.855C0.130678 41.2656 0.328297 42.2486 0.940333 43.1609C1.1842 43.5422 3.91269 45.9994 8.28245 49.7836L15.2373 55.8229L14.9281 72.8821C14.7671 82.2824 14.6224 90.0733 14.6028 90.2185C14.5933 90.3815 11.9299 92.8844 8.09126 96.3327C4.52074 99.5573 1.59206 102.235 1.58825 102.3C1.58349 102.382 1.62461 102.437 1.66859 102.444C1.72356 102.452 4.63854 100.578 8.15381 98.2991C13.2147 94.9977 14.5473 94.2069 14.5459 94.4205C14.5583 94.5868 14.4852 99.066 14.3844 104.396C14.2837 109.727 14.2498 114.294 14.3124 114.55C14.4158 115.058 14.8518 115.567 15.2257 115.622C15.5995 115.677 16.087 115.304 16.2585 114.836C16.3793 114.476 16.3832 112.322 16.3059 103.774C16.2291 95.4082 16.2406 93.1238 16.3591 92.9932C16.5603 92.7761 24.8235 87.4294 24.9334 87.4456C24.9884 87.4537 25.0555 90.6707 25.0936 94.5741C25.1307 98.4939 25.205 101.778 25.2543 101.884C25.3145 101.991 25.3541 101.504 25.3587 100.666C25.4091 92.4002 25.4749 87.0976 25.5347 87.0242C25.5715 86.9638 28.6958 84.9235 32.4653 82.4683C36.2348 80.013 39.4877 77.8601 39.687 77.6756C40.553 76.8984 40.9335 74.7505 40.5121 73.0438C40.0987 71.3877 39.8912 71.1433 32.6078 64.0853C28.8719 60.4602 25.7862 57.4734 25.7662 57.4376C25.7269 57.3496 26.0069 24.0861 26.0564 23.2381C26.0879 22.7 26.2652 22.5123 32.1941 16.6906C35.5577 13.4027 38.3123 10.6666 38.3171 10.585C38.3319 10.5214 38.2908 10.466 38.2248 10.4563C38.1698 10.4482 35.4289 12.3805 32.1306 14.7406C28.8434 17.1023 26.1263 19.0051 26.1062 18.9693C26.0771 18.8992 26.1855 2.23813 26.2183 1.48641C26.225 1.37226 26.1202 1.07726 25.9787 0.842625C25.6483 0.234827 24.8796 0.105306 24.4294 0.598272ZM24.4773 40.5874C24.5847 49.1884 24.6488 56.2535 24.6249 56.2829C24.5891 56.327 15.9603 48.002 15.8388 47.8032C15.8087 47.7494 15.7567 45.6037 15.7404 43.0356C15.7231 40.4838 15.6572 38.3853 15.6022 38.3773C15.5472 38.3692 15.5043 38.7247 15.5197 39.2203C15.5463 40.8525 15.3832 47.0618 15.3115 47.15C15.2747 47.2103 13.6338 45.6861 11.6712 43.7856C9.70863 41.8851 8.11463 40.3184 8.12658 40.3037C8.13852 40.2891 11.773 36.7285 16.2076 32.381C20.9828 27.7054 24.2709 24.5708 24.2853 24.7045C24.2886 24.8365 24.3819 31.9717 24.4773 40.5874ZM20.5034 60.3968C22.8141 62.4143 24.713 64.0752 24.7231 64.0931C24.7934 64.2186 24.9297 80.8663 24.8743 81.0555C24.795 81.2741 16.235 89.0442 16.1857 88.9382C16.1566 88.8682 15.8623 57.0826 15.8952 56.7092C15.9037 56.5624 15.9826 56.5411 16.1107 56.6257C16.2178 56.6908 18.2029 58.3973 20.5034 60.3968ZM30.1915 68.8119C32.4921 70.8114 34.3791 72.487 34.3763 72.5359C34.3624 72.5832 32.3695 74.4281 29.946 76.6209L25.5324 80.6096L25.5533 77.7838C25.6545 65.2334 25.6644 64.873 25.8327 65.0293C25.9169 65.1075 27.8799 66.8107 30.1915 68.8119Z" fill="#313131"/>
</svg>
