<svg width="44" height="110" viewBox="0 0 44 110" fill="none" xmlns="http://www.w3.org/2000/svg">
<path d="M26.1142 0.411233C25.8188 0.68361 25.762 0.847523 25.7327 1.48288C25.7173 1.9018 25.7522 6.03822 25.8136 10.6616C25.875 15.2849 25.8704 19.1354 25.8205 19.1911C25.7581 19.2607 20.4404 22.7445 14.0004 26.9359C7.57196 31.1289 2.11796 34.7504 1.89445 34.9856C1.29677 35.6385 1.01848 36.3653 0.891017 37.6268C0.747103 38.9641 0.95341 39.896 1.59236 40.7609C1.84694 41.1223 4.69539 43.4518 9.25727 47.0392L16.5178 52.7645L16.1952 68.9367C16.027 77.8483 15.876 85.2341 15.8555 85.3717C15.8456 85.5263 13.0651 87.899 9.05768 91.168C5.33017 94.225 2.27274 96.7634 2.26876 96.8252C2.26379 96.9025 2.30671 96.955 2.35263 96.9612C2.41002 96.9688 5.45315 95.1925 9.12298 93.0322C14.4064 89.9024 15.7975 89.1527 15.7961 89.3552C15.8091 89.5129 15.7327 93.7592 15.6275 98.8125C15.5224 103.866 15.487 108.195 15.5524 108.438C15.6603 108.92 16.1155 109.402 16.5057 109.454C16.896 109.506 17.4049 109.153 17.584 108.709C17.7101 108.368 17.7142 106.326 17.6335 98.2229C17.5533 90.2916 17.5653 88.126 17.6891 88.0022C17.8991 87.7964 26.5256 82.7277 26.6403 82.743C26.6977 82.7507 26.7678 85.8004 26.8075 89.5009C26.8463 93.2169 26.9239 96.33 26.9753 96.4304C27.0382 96.5324 27.0795 96.0702 27.0843 95.2756C27.1369 87.4401 27.2056 82.4131 27.268 82.3435C27.3064 82.2863 30.5681 80.3521 34.5034 78.0245C38.4386 75.6969 41.8345 73.6559 42.0426 73.481C42.9466 72.7442 43.3439 70.708 42.9039 69.0901C42.4724 67.52 42.2557 67.2884 34.6521 60.5973C30.752 57.1607 27.5306 54.3292 27.5097 54.2953C27.4687 54.2118 27.761 22.6778 27.8127 21.8739C27.8455 21.3638 28.0306 21.1858 34.2203 15.6669C37.7317 12.5499 40.6075 9.95604 40.6124 9.87874C40.6279 9.81844 40.585 9.76593 40.5161 9.75673C40.4587 9.74906 37.5972 11.5808 34.154 13.8182C30.7222 16.0571 27.8857 17.8611 27.8647 17.8271C27.8342 17.7606 27.9474 1.96583 27.9817 1.25319C27.9887 1.14498 27.8793 0.865312 27.7316 0.642883C27.3866 0.0666866 26.5841 -0.0561008 26.1142 0.411233ZM26.1642 38.3212C26.2763 46.475 26.3432 53.1727 26.3183 53.2006C26.2808 53.2424 17.2727 45.3502 17.1459 45.1618C17.1144 45.1108 17.0601 43.0766 17.0431 40.642C17.0251 38.2229 16.9562 36.2336 16.8988 36.2259C16.8415 36.2183 16.7966 36.5553 16.8127 37.0252C16.8405 38.5725 16.6702 44.459 16.5953 44.5425C16.5569 44.5997 14.8439 43.1548 12.795 41.3531C10.7462 39.5514 9.08208 38.0662 9.09455 38.0523C9.10702 38.0383 12.9013 34.6629 17.5308 30.5415C22.5161 26.1089 25.9487 23.1373 25.9637 23.2641C25.9672 23.3893 26.0645 30.1534 26.1642 38.3212ZM22.0156 57.1006C24.4278 59.0132 26.4103 60.5877 26.4207 60.6047C26.4941 60.7237 26.6364 76.5058 26.5786 76.6852C26.4958 76.8924 17.5595 84.2585 17.508 84.1581C17.4776 84.0916 17.1703 53.9587 17.2047 53.6047C17.2136 53.4656 17.296 53.4454 17.4297 53.5256C17.5415 53.5873 19.6138 55.205 22.0156 57.1006ZM32.1296 65.0781C34.5313 66.9737 36.5013 68.5622 36.4983 68.6086C36.4839 68.6534 34.4033 70.4024 31.8733 72.4811L27.2656 76.2625L27.2875 73.5836C27.3931 61.6857 27.4035 61.3441 27.5792 61.4923C27.667 61.5664 29.7164 63.181 32.1296 65.0781Z" fill="#F8F8F8"/>
</svg>
