<svg width="221" height="228" viewBox="0 0 221 228" fill="none" xmlns="http://www.w3.org/2000/svg">
<path d="M197.303 121.246L197.303 121.246L197.297 121.256L153.9 187.621L153.882 187.648L153.867 187.678C153.163 189.146 151.936 190.345 150.39 191.15C148.843 191.954 147.157 192.27 145.55 192.004L145.518 191.999L145.485 191.998L66.2322 189.431L66.2322 189.43L66.2181 189.43C64.7248 189.424 63.2618 189.009 61.988 188.229C60.7141 187.45 59.6782 186.336 58.9928 185.01L58.9921 185.009L22.6517 115.145C21.2054 112.364 21.4847 109.152 23.1809 106.688L23.181 106.688L23.1875 106.678L66.5843 40.3131L66.6023 40.2856L66.6165 40.2559C67.3214 38.7879 68.5477 37.5888 70.0944 36.7842C71.6412 35.9797 73.327 35.664 74.9336 35.9297L74.9661 35.935L74.999 35.9361L154.252 38.5033L154.252 38.5035L154.264 38.5036C157.255 38.5295 160.046 40.1449 161.492 42.9254L197.832 112.789C199.279 115.569 198.999 118.782 197.303 121.246ZM43.5594 118.5L43.1158 118.731L43.3465 119.175L67.5735 165.75L67.8042 166.194L68.2478 165.963L77.9511 160.916L78.3947 160.685L78.1639 160.242L70.319 145.16L75.6974 142.362C79.9326 140.159 83.1192 136.364 84.5562 131.812C85.9932 127.259 85.5628 122.322 83.3599 118.087C81.1569 113.852 77.3617 110.665 72.8092 109.228C68.2567 107.791 63.3198 108.222 59.0846 110.425L43.5594 118.5ZM80.4319 99.3206L79.9883 99.5513L80.219 99.9949L104.446 146.571L104.677 147.014L105.12 146.784L114.824 141.736L115.267 141.506L115.036 141.062L107.192 125.98L112.249 123.349L125.189 135.957L125.448 136.21L125.769 136.043L136.016 130.713L136.629 130.394L136.134 129.911L120.608 114.799C122.872 109.948 122.912 104.059 120.232 98.9074C118.029 94.6722 114.234 91.4856 109.682 90.0486C105.129 88.6116 100.192 89.0419 95.9571 91.2449L80.4319 99.3206ZM65.8197 136.51L58.2055 121.872L61.6433 120.084C63.5844 119.074 65.8471 118.877 67.9337 119.536C70.0202 120.194 71.7597 121.655 72.7694 123.596C73.7791 125.537 73.9763 127.8 73.3177 129.886C72.6591 131.973 71.1986 133.712 69.2575 134.722L65.8197 136.51ZM95.078 102.692L98.5158 100.904C100.457 99.8945 102.72 99.6972 104.806 100.356C106.893 101.014 108.632 102.475 109.642 104.416C110.652 106.357 110.849 108.62 110.19 110.707C109.532 112.793 108.071 114.533 106.13 115.542L102.692 117.33L95.078 102.692ZM136.711 70.0463C125.682 75.7834 122.416 91.0509 129.205 104.103C135.994 117.155 150.37 123.246 161.399 117.509C172.429 111.772 175.695 96.5047 168.905 83.4525C162.116 70.4003 147.74 64.3093 136.711 70.0463ZM142.22 80.6368C147.783 77.7431 155.481 81.0487 159.324 88.4363C163.167 95.8239 161.454 104.025 155.891 106.919C150.331 109.811 142.709 106.471 138.864 99.0789C135.019 91.6867 136.66 83.5286 142.22 80.6368Z" fill="white" stroke="black"/>
</svg>
