<svg width="33" height="33" viewBox="0 0 33 33" fill="none" xmlns="http://www.w3.org/2000/svg">
<path fill-rule="evenodd" clip-rule="evenodd" d="M7.29241 3.71672C7.1745 3.56548 7.02581 3.441 6.85618 3.35155C6.68655 3.26209 6.49985 3.20969 6.30844 3.19782C6.11704 3.18594 5.92529 3.21486 5.74591 3.28267C5.56652 3.35047 5.40358 3.45561 5.26789 3.59112L3.20292 5.65609C2.23855 6.62045 1.88304 7.98716 2.30668 9.1857C4.05387 14.151 6.89662 18.6593 10.624 22.376C14.3407 26.1034 18.849 28.9461 23.8143 30.6933C25.0128 31.1148 26.3795 30.7614 27.3439 29.7971L29.4089 27.7321C29.5443 27.5963 29.6493 27.4332 29.7169 27.2537C29.7845 27.0743 29.8132 26.8825 29.8012 26.6911C29.7891 26.4997 29.7365 26.313 29.6468 26.1435C29.5572 25.9739 29.4325 25.8253 29.2811 25.7076L24.6786 22.1269C24.5167 22.0011 24.3284 21.9136 24.1277 21.8712C23.9271 21.8288 23.7195 21.8325 23.5205 21.8821L19.1522 22.9742C18.5686 23.1203 17.9572 23.1127 17.3774 22.9523C16.7977 22.7919 16.2694 22.4841 15.8439 22.0588L10.9434 17.1561C10.5181 16.7306 10.2102 16.2023 10.0498 15.6226C9.88938 15.0428 9.88186 14.4314 10.028 13.8478L11.1201 9.47948C11.1696 9.28051 11.1733 9.07288 11.1309 8.87226C11.0885 8.67165 11.0011 8.48329 10.8752 8.32139L7.29241 3.71672ZM3.7628 2.08816C4.11207 1.73911 4.53158 1.46832 4.99348 1.29376C5.45538 1.1192 5.94913 1.04485 6.44195 1.07565C6.93478 1.10645 7.41543 1.2417 7.852 1.47242C8.28857 1.70314 8.6711 2.02405 8.97419 2.41387L12.5528 7.01642C13.2106 7.85943 13.4426 8.96004 13.1829 9.99679L12.0908 14.3673C12.034 14.5941 12.0369 14.8317 12.0992 15.057C12.1615 15.2823 12.2811 15.4877 12.4463 15.6531L17.3512 20.5537C17.5165 20.7189 17.7219 20.8385 17.9472 20.9008C18.1726 20.9631 18.4102 20.966 18.637 20.9092L23.0053 19.8171C23.5177 19.6891 24.0525 19.6794 24.5692 19.7885C25.0859 19.8977 25.571 20.123 25.9878 20.4472L30.5904 24.0258C32.2445 25.3116 32.3978 27.7577 30.9161 29.2372L28.8511 31.3022C27.3758 32.7775 25.1682 33.4267 23.1097 32.7029C17.8438 30.8494 13.0628 27.8342 9.12108 23.8811C5.16707 19.9396 2.15116 15.1585 0.297056 9.89247C-0.426748 7.83389 0.222547 5.62629 1.69783 4.14887L3.7628 2.08603V2.08816ZM32.6873 0.312713C32.7864 0.411588 32.8651 0.529048 32.9187 0.658364C32.9724 0.78768 33 0.926313 33 1.06632C33 1.20633 32.9724 1.34496 32.9187 1.47428C32.8651 1.60359 32.7864 1.72105 32.6873 1.81993L23.859 10.6461H29.8048C30.0871 10.6461 30.3579 10.7582 30.5575 10.9578C30.7571 11.1575 30.8693 11.4282 30.8693 11.7105C30.8693 11.9928 30.7571 12.2635 30.5575 12.4632C30.3579 12.6628 30.0871 12.7749 29.8048 12.7749H21.2895C21.0072 12.7749 20.7365 12.6628 20.5368 12.4632C20.3372 12.2635 20.2251 11.9928 20.2251 11.7105V3.19516C20.2251 2.91285 20.3372 2.64212 20.5368 2.4425C20.7365 2.24288 21.0072 2.13074 21.2895 2.13074C21.5718 2.13074 21.8425 2.24288 22.0422 2.4425C22.2418 2.64212 22.3539 2.91285 22.3539 3.19516V9.14099L31.1801 0.312713C31.2789 0.213587 31.3964 0.134942 31.5257 0.0812816C31.655 0.0276212 31.7937 0 31.9337 0C32.0737 0 32.2123 0.0276212 32.3416 0.0812816C32.471 0.134942 32.5884 0.213587 32.6873 0.312713Z" fill="#3383EA"/>
</svg>
