<svg width="46" height="42" viewBox="0 0 46 42" fill="none" xmlns="http://www.w3.org/2000/svg">
<path d="M24.4687 0H26.8388C31.8674 0 36.6901 1.86315 40.2459 5.17958C43.8017 8.49602 45.7993 12.9941 45.7993 17.6842V19.8947H24.4687V0ZM26.8388 17.6842H43.4292C43.4292 13.5803 41.6813 9.64454 38.57 6.74266C35.4587 3.84078 31.2389 2.21053 26.8388 2.21053V17.6842ZM19.7286 24.3158H38.6891C38.6891 27.8134 37.5771 31.2325 35.4937 34.1406C33.4103 37.0488 30.4491 39.3154 26.9845 40.6539C23.5199 41.9923 19.7076 42.3425 16.0296 41.6602C12.3516 40.9778 8.97316 39.2936 6.32148 36.8204C3.66981 34.3472 1.86399 31.1962 1.1324 27.7658C0.4008 24.3354 0.776282 20.7797 2.21136 17.5483C3.64644 14.317 6.07665 11.5551 9.19469 9.61191C12.3127 7.66874 15.9786 6.63158 19.7286 6.63158V24.3158ZM17.3585 26.5263V8.99684C13.2134 9.56335 9.45135 11.5711 6.82746 14.6172C4.20357 17.6633 2.912 21.5223 3.21198 25.4197C3.51195 29.3171 5.38127 32.9644 8.44476 35.6297C11.5082 38.295 15.5392 39.781 19.7286 39.7895C23.7186 39.79 27.5752 38.4494 30.5917 36.0136C33.6083 33.5777 35.5827 30.2095 36.1531 26.5263H17.3585Z" fill="#3383EA"/>
</svg>
