<svg width="169" height="158" viewBox="0 0 169 158" fill="none" xmlns="http://www.w3.org/2000/svg">
<path d="M6.56454 55.2408L114.812 3.07988C116.407 2.31133 118.216 2.15338 119.84 2.64078C121.465 3.12818 122.772 4.22101 123.475 5.67886L165.854 93.6278C166.557 95.0857 166.597 96.7891 165.966 98.3634C165.335 99.9377 164.084 101.254 162.489 102.022L54.2417 154.183C52.6468 154.952 50.8381 155.11 49.2135 154.623C47.589 154.135 46.2817 153.042 45.5792 151.584L3.19951 63.6355C2.49703 62.1776 2.4569 60.4742 3.08796 58.8999C3.71903 57.3256 4.96959 56.0094 6.56454 55.2408ZM69.2426 62.2906L87.7837 100.768L99.8113 94.9727L81.2701 56.495L69.2426 62.2906ZM67.5287 63.1165L54.8156 69.2425L56.7073 96.189L36.8104 77.9186L24.0973 84.0447L58.245 114.758L70.2725 108.963L67.5287 63.1165ZM112.555 75.2855L121.576 70.9388C125.563 69.0174 128.689 65.7269 130.267 61.7912C131.845 57.8554 131.744 53.5968 129.988 49.9522C128.232 46.3076 124.964 43.5755 120.902 42.357C116.841 41.1385 112.319 41.5334 108.332 43.4547L87.2839 53.5972L105.825 92.0748L117.853 86.2792L112.555 75.2855ZM107.258 64.2919L104.609 58.7951L113.629 54.4484C114.427 54.0641 115.331 53.9851 116.144 54.2288C116.956 54.4725 117.609 55.0189 117.961 55.7479C118.312 56.4768 118.332 57.3285 118.017 58.1156C117.701 58.9028 117.076 59.5609 116.278 59.9452L107.258 64.2919Z" fill="url(#paint0_linear)"/>
<defs>
<linearGradient id="paint0_linear" x1="59.8002" y1="90.5467" x2="123.748" y2="61.7748" gradientUnits="userSpaceOnUse">
<stop stop-color="#3383EA"/>
<stop offset="1" stop-color="#226AC6"/>
</linearGradient>
</defs>
</svg>
