<svg width="749" height="400" viewBox="0 0 749 320" fill="none" xmlns="http://www.w3.org/2000/svg">
<path d="M77 356.893C357.254 282.998 486.061 220.635 651 61.5187" stroke="#0DA500" stroke-width="3"/>
<path d="M77 355.892C349.523 226.68 537.505 218.064 614 36.4869" stroke="#FFC700" stroke-width="3"/>
<path d="M79 356.893C457.142 330.387 566.989 279.833 631 91.5568" stroke="#FF0000" stroke-width="3"/>
<path d="M157 251.747C157 246.224 161.477 241.747 167 241.747H248C253.523 241.747 258 246.224 258 251.747V357.894H157V251.747Z" fill="#436FB9" fill-opacity="0.13"/>
<path d="M289 196.677C289 191.154 293.477 186.677 299 186.677H387C392.523 186.677 397 191.154 397 196.677V357.894H289V196.677Z" fill="#436FB9" fill-opacity="0.13"/>
<path d="M428 135.6C428 130.077 432.477 125.6 438 125.6H518C523.523 125.6 528 130.077 528 135.6V357.894H428V135.6Z" fill="#436FB9" fill-opacity="0.13"/>
<path d="M559 82C559 76.4772 563.477 72 569 72H654C659.523 72 664 76.4772 664 82V358H559V82Z" fill="#436FB9" fill-opacity="0.13"/>

<path d="M23.8691 119.569H14.9629V118.671L19.8359 113.144C20.6432 112.213 21.2031 111.444 21.5156 110.839C21.8281 110.234 21.9844 109.644 21.9844 109.071C21.9844 108.173 21.7207 107.463 21.1934 106.943C20.666 106.415 19.9401 106.151 19.0156 106.151C18.0586 106.151 17.2839 106.457 16.6914 107.069C16.1055 107.681 15.8125 108.476 15.8125 109.452H14.6504C14.6504 108.651 14.8294 107.922 15.1875 107.265C15.5521 106.607 16.0664 106.093 16.7305 105.722C17.401 105.344 18.1628 105.155 19.0156 105.155C20.3177 105.155 21.3333 105.497 22.0625 106.181C22.7982 106.864 23.166 107.795 23.166 108.974C23.166 109.638 22.9577 110.364 22.541 111.151C22.1309 111.939 21.4049 112.922 20.3633 114.101L16.3984 118.583H23.8691V119.569ZM26.8477 112.284L27.541 105.351H34.6504V106.435H28.5469L28.0488 111.239C28.8105 110.719 29.7025 110.458 30.7246 110.458C32.0072 110.458 33.0293 110.875 33.791 111.708C34.5527 112.541 34.9336 113.651 34.9336 115.038C34.9336 116.536 34.5625 117.698 33.8203 118.525C33.0781 119.351 32.0332 119.765 30.6855 119.765C29.4486 119.765 28.446 119.42 27.6777 118.73C26.9095 118.04 26.4701 117.073 26.3594 115.829H27.4824C27.5931 116.799 27.9219 117.535 28.4688 118.036C29.0156 118.531 29.7546 118.778 30.6855 118.778C31.7012 118.778 32.4661 118.456 32.9805 117.812C33.5013 117.167 33.7617 116.249 33.7617 115.058C33.7617 114.016 33.472 113.166 32.8926 112.509C32.3132 111.851 31.5221 111.523 30.5195 111.523C29.9661 111.523 29.4844 111.594 29.0742 111.737C28.6641 111.874 28.2311 112.144 27.7754 112.548L26.8477 112.284ZM45.7246 113.642C45.7246 115.647 45.3568 117.17 44.6211 118.212C43.8854 119.247 42.8014 119.765 41.3691 119.765C39.9629 119.765 38.8854 119.257 38.1367 118.241C37.388 117.219 37.0039 115.735 36.9844 113.788V111.239C36.9844 109.241 37.3555 107.727 38.0977 106.698C38.8398 105.67 39.9238 105.155 41.3496 105.155C42.7559 105.155 43.8301 105.653 44.5723 106.65C45.3145 107.639 45.6986 109.101 45.7246 111.034V113.642ZM44.5527 111.093C44.5527 109.465 44.2858 108.235 43.752 107.401C43.2246 106.568 42.4238 106.151 41.3496 106.151C40.2949 106.151 39.5007 106.558 38.9668 107.372C38.4329 108.186 38.1595 109.387 38.1465 110.976V113.769C38.1465 115.39 38.4199 116.63 38.9668 117.489C39.5202 118.349 40.321 118.778 41.3691 118.778C42.4108 118.778 43.1986 118.359 43.7324 117.519C44.2728 116.679 44.5462 115.448 44.5527 113.827V111.093ZM56.8184 113.642C56.8184 115.647 56.4505 117.17 55.7148 118.212C54.9792 119.247 53.8952 119.765 52.4629 119.765C51.0566 119.765 49.9792 119.257 49.2305 118.241C48.4818 117.219 48.0977 115.735 48.0781 113.788V111.239C48.0781 109.241 48.4492 107.727 49.1914 106.698C49.9336 105.67 51.0176 105.155 52.4434 105.155C53.8496 105.155 54.9238 105.653 55.666 106.65C56.4082 107.639 56.7923 109.101 56.8184 111.034V113.642ZM55.6465 111.093C55.6465 109.465 55.3796 108.235 54.8457 107.401C54.3184 106.568 53.5176 106.151 52.4434 106.151C51.3887 106.151 50.5944 106.558 50.0605 107.372C49.5267 108.186 49.2533 109.387 49.2402 110.976V113.769C49.2402 115.39 49.5137 116.63 50.0605 117.489C50.6139 118.349 51.4147 118.778 52.4629 118.778C53.5046 118.778 54.2923 118.359 54.8262 117.519C55.3665 116.679 55.64 115.448 55.6465 113.827V111.093Z" fill="#313131"/>

<path d="M23.8691 187.656H14.9629V186.757L19.8359 181.23C20.6432 180.299 21.2031 179.531 21.5156 178.925C21.8281 178.32 21.9844 177.731 21.9844 177.158C21.9844 176.259 21.7207 175.55 21.1934 175.029C20.666 174.501 19.9401 174.238 19.0156 174.238C18.0586 174.238 17.2839 174.544 16.6914 175.156C16.1055 175.768 15.8125 176.562 15.8125 177.538H14.6504C14.6504 176.738 14.8294 176.009 15.1875 175.351C15.5521 174.693 16.0664 174.179 16.7305 173.808C17.401 173.43 18.1628 173.242 19.0156 173.242C20.3177 173.242 21.3333 173.583 22.0625 174.267C22.7982 174.951 23.166 175.882 23.166 177.06C23.166 177.724 22.9577 178.45 22.541 179.238C22.1309 180.025 21.4049 181.009 20.3633 182.187L16.3984 186.669H23.8691V187.656ZM34.6309 181.728C34.6309 183.733 34.263 185.257 33.5273 186.298C32.7917 187.333 31.7077 187.851 30.2754 187.851C28.8691 187.851 27.7917 187.343 27.043 186.328C26.2943 185.305 25.9102 183.821 25.8906 181.874V179.326C25.8906 177.327 26.2617 175.813 27.0039 174.785C27.7461 173.756 28.8301 173.242 30.2559 173.242C31.6621 173.242 32.7363 173.74 33.4785 174.736C34.2207 175.725 34.6048 177.187 34.6309 179.12V181.728ZM33.459 179.179C33.459 177.551 33.1921 176.321 32.6582 175.488C32.1309 174.654 31.3301 174.238 30.2559 174.238C29.2012 174.238 28.4069 174.645 27.873 175.458C27.3392 176.272 27.0658 177.473 27.0527 179.062V181.855C27.0527 183.476 27.3262 184.716 27.873 185.576C28.4264 186.435 29.2272 186.865 30.2754 186.865C31.3171 186.865 32.1048 186.445 32.6387 185.605C33.179 184.765 33.4525 183.535 33.459 181.913V179.179ZM45.7246 181.728C45.7246 183.733 45.3568 185.257 44.6211 186.298C43.8854 187.333 42.8014 187.851 41.3691 187.851C39.9629 187.851 38.8854 187.343 38.1367 186.328C37.388 185.305 37.0039 183.821 36.9844 181.874V179.326C36.9844 177.327 37.3555 175.813 38.0977 174.785C38.8398 173.756 39.9238 173.242 41.3496 173.242C42.7559 173.242 43.8301 173.74 44.5723 174.736C45.3145 175.725 45.6986 177.187 45.7246 179.12V181.728ZM44.5527 179.179C44.5527 177.551 44.2858 176.321 43.752 175.488C43.2246 174.654 42.4238 174.238 41.3496 174.238C40.2949 174.238 39.5007 174.645 38.9668 175.458C38.4329 176.272 38.1595 177.473 38.1465 179.062V181.855C38.1465 183.476 38.4199 184.716 38.9668 185.576C39.5202 186.435 40.321 186.865 41.3691 186.865C42.4108 186.865 43.1986 186.445 43.7324 185.605C44.2728 184.765 44.5462 183.535 44.5527 181.913V179.179ZM56.8184 181.728C56.8184 183.733 56.4505 185.257 55.7148 186.298C54.9792 187.333 53.8952 187.851 52.4629 187.851C51.0566 187.851 49.9792 187.343 49.2305 186.328C48.4818 185.305 48.0977 183.821 48.0781 181.874V179.326C48.0781 177.327 48.4492 175.813 49.1914 174.785C49.9336 173.756 51.0176 173.242 52.4434 173.242C53.8496 173.242 54.9238 173.74 55.666 174.736C56.4082 175.725 56.7923 177.187 56.8184 179.12V181.728ZM55.6465 179.179C55.6465 177.551 55.3796 176.321 54.8457 175.488C54.3184 174.654 53.5176 174.238 52.4434 174.238C51.3887 174.238 50.5944 174.645 50.0605 175.458C49.5267 176.272 49.2533 177.473 49.2402 179.062V181.855C49.2402 183.476 49.5137 184.716 50.0605 185.576C50.6139 186.435 51.4147 186.865 52.4629 186.865C53.5046 186.865 54.2923 186.445 54.8262 185.605C55.3665 184.765 55.64 183.535 55.6465 181.913V179.179Z" fill="#313131"/>

<path d="M20.4023 255.742H19.2305V242.929L15.3633 244.365V243.271L20.207 241.474H20.4023V255.742ZM26.8477 248.457L27.541 241.523H34.6504V242.607H28.5469L28.0488 247.412C28.8105 246.891 29.7025 246.631 30.7246 246.631C32.0072 246.631 33.0293 247.047 33.791 247.881C34.5527 248.714 34.9336 249.824 34.9336 251.211C34.9336 252.708 34.5625 253.87 33.8203 254.697C33.0781 255.524 32.0332 255.937 30.6855 255.937C29.4486 255.937 28.446 255.592 27.6777 254.902C26.9095 254.212 26.4701 253.245 26.3594 252.002H27.4824C27.5931 252.972 27.9219 253.707 28.4688 254.209C29.0156 254.704 29.7546 254.951 30.6855 254.951C31.7012 254.951 32.4661 254.629 32.9805 253.984C33.5013 253.34 33.7617 252.422 33.7617 251.23C33.7617 250.189 33.472 249.339 32.8926 248.681C32.3132 248.024 31.5221 247.695 30.5195 247.695C29.9661 247.695 29.4844 247.767 29.0742 247.91C28.6641 248.047 28.2311 248.317 27.7754 248.72L26.8477 248.457ZM45.7246 249.814C45.7246 251.819 45.3568 253.343 44.6211 254.385C43.8854 255.42 42.8014 255.937 41.3691 255.937C39.9629 255.937 38.8854 255.429 38.1367 254.414C37.388 253.392 37.0039 251.907 36.9844 249.961V247.412C36.9844 245.413 37.3555 243.899 38.0977 242.871C38.8398 241.842 39.9238 241.328 41.3496 241.328C42.7559 241.328 43.8301 241.826 44.5723 242.822C45.3145 243.812 45.6986 245.273 45.7246 247.207V249.814ZM44.5527 247.265C44.5527 245.638 44.2858 244.407 43.752 243.574C43.2246 242.741 42.4238 242.324 41.3496 242.324C40.2949 242.324 39.5007 242.731 38.9668 243.545C38.4329 244.358 38.1595 245.56 38.1465 247.148V249.941C38.1465 251.562 38.4199 252.802 38.9668 253.662C39.5202 254.521 40.321 254.951 41.3691 254.951C42.4108 254.951 43.1986 254.531 43.7324 253.691C44.2728 252.851 44.5462 251.621 44.5527 250V247.265ZM56.8184 249.814C56.8184 251.819 56.4505 253.343 55.7148 254.385C54.9792 255.42 53.8952 255.937 52.4629 255.937C51.0566 255.937 49.9792 255.429 49.2305 254.414C48.4818 253.392 48.0977 251.907 48.0781 249.961V247.412C48.0781 245.413 48.4492 243.899 49.1914 242.871C49.9336 241.842 51.0176 241.328 52.4434 241.328C53.8496 241.328 54.9238 241.826 55.666 242.822C56.4082 243.812 56.7923 245.273 56.8184 247.207V249.814ZM55.6465 247.265C55.6465 245.638 55.3796 244.407 54.8457 243.574C54.3184 242.741 53.5176 242.324 52.4434 242.324C51.3887 242.324 50.5944 242.731 50.0605 243.545C49.5267 244.358 49.2533 245.56 49.2402 247.148V249.941C49.2402 251.562 49.5137 252.802 50.0605 253.662C50.6139 254.521 51.4147 254.951 52.4629 254.951C53.5046 254.951 54.2923 254.531 54.8262 253.691C55.3665 252.851 55.64 251.621 55.6465 250V247.265Z" fill="#313131"/>

<path d="M20.4023 323.828H19.2305V311.016L15.3633 312.451V311.357L20.207 309.561H20.4023V323.828ZM34.6309 317.9C34.6309 319.906 34.263 321.429 33.5273 322.471C32.7917 323.506 31.7077 324.023 30.2754 324.023C28.8691 324.023 27.7917 323.516 27.043 322.5C26.2943 321.478 25.9102 319.993 25.8906 318.047V315.498C25.8906 313.499 26.2617 311.986 27.0039 310.957C27.7461 309.928 28.8301 309.414 30.2559 309.414C31.6621 309.414 32.7363 309.912 33.4785 310.908C34.2207 311.898 34.6048 313.359 34.6309 315.293V317.9ZM33.459 315.352C33.459 313.724 33.1921 312.493 32.6582 311.66C32.1309 310.827 31.3301 310.41 30.2559 310.41C29.2012 310.41 28.4069 310.817 27.873 311.631C27.3392 312.445 27.0658 313.646 27.0527 315.234V318.027C27.0527 319.648 27.3262 320.889 27.873 321.748C28.4264 322.607 29.2272 323.037 30.2754 323.037C31.3171 323.037 32.1048 322.617 32.6387 321.777C33.179 320.938 33.4525 319.707 33.459 318.086V315.352ZM45.7246 317.9C45.7246 319.906 45.3568 321.429 44.6211 322.471C43.8854 323.506 42.8014 324.023 41.3691 324.023C39.9629 324.023 38.8854 323.516 38.1367 322.5C37.388 321.478 37.0039 319.993 36.9844 318.047V315.498C36.9844 313.499 37.3555 311.986 38.0977 310.957C38.8398 309.928 39.9238 309.414 41.3496 309.414C42.7559 309.414 43.8301 309.912 44.5723 310.908C45.3145 311.898 45.6986 313.359 45.7246 315.293V317.9ZM44.5527 315.352C44.5527 313.724 44.2858 312.493 43.752 311.66C43.2246 310.827 42.4238 310.41 41.3496 310.41C40.2949 310.41 39.5007 310.817 38.9668 311.631C38.4329 312.445 38.1595 313.646 38.1465 315.234V318.027C38.1465 319.648 38.4199 320.889 38.9668 321.748C39.5202 322.607 40.321 323.037 41.3691 323.037C42.4108 323.037 43.1986 322.617 43.7324 321.777C44.2728 320.938 44.5462 319.707 44.5527 318.086V315.352ZM56.8184 317.9C56.8184 319.906 56.4505 321.429 55.7148 322.471C54.9792 323.506 53.8952 324.023 52.4629 324.023C51.0566 324.023 49.9792 323.516 49.2305 322.5C48.4818 321.478 48.0977 319.993 48.0781 318.047V315.498C48.0781 313.499 48.4492 311.986 49.1914 310.957C49.9336 309.928 51.0176 309.414 52.4434 309.414C53.8496 309.414 54.9238 309.912 55.666 310.908C56.4082 311.898 56.7923 313.359 56.8184 315.293V317.9ZM55.6465 315.352C55.6465 313.724 55.3796 312.493 54.8457 311.66C54.3184 310.827 53.5176 310.41 52.4434 310.41C51.3887 310.41 50.5944 310.817 50.0605 311.631C49.5267 312.445 49.2533 313.646 49.2402 315.234V318.027C49.2402 319.648 49.5137 320.889 50.0605 321.748C50.6139 322.607 51.4147 323.037 52.4629 323.037C53.5046 323.037 54.2923 322.617 54.8262 321.777C55.3665 320.938 55.64 319.707 55.6465 318.086V315.352Z" fill="#313131"/>
<path d="M578.402 13.6636H583.041V16.3735H578.402V21.6592H575.521V16.3735H570.858V13.6636H575.521V8.71973H578.402V13.6636ZM601.559 17.106H603.769V19.4863H601.559V23.4414H598.593V19.4863H590.915L590.829 17.6797L598.495 5.66797H601.559V17.106ZM593.942 17.106H598.593V9.68408L598.373 10.0747L593.942 17.106ZM617.318 15.9585C617.318 18.5138 616.838 20.4425 615.878 21.7446C614.926 23.0386 613.473 23.6855 611.52 23.6855C609.599 23.6855 608.151 23.0549 607.174 21.7935C606.206 20.5239 605.709 18.6481 605.685 16.166V13.0898C605.685 10.5345 606.161 8.618 607.113 7.34033C608.074 6.06266 609.534 5.42383 611.496 5.42383C613.441 5.42383 614.889 6.04639 615.841 7.2915C616.802 8.53662 617.294 10.4002 617.318 12.8823V15.9585ZM614.352 12.6382C614.352 10.9699 614.124 9.74919 613.668 8.97607C613.213 8.19482 612.488 7.8042 611.496 7.8042C610.527 7.8042 609.815 8.17448 609.359 8.91504C608.904 9.64746 608.664 10.7949 608.639 12.3574V16.3857C608.639 18.0459 608.871 19.2829 609.335 20.0967C609.799 20.9105 610.527 21.3174 611.52 21.3174C612.472 21.3174 613.176 20.943 613.632 20.1943C614.088 19.4375 614.328 18.2575 614.352 16.6543V12.6382ZM619.821 9.08594C619.821 8.01172 620.167 7.13281 620.858 6.44922C621.55 5.75749 622.458 5.41162 623.581 5.41162C624.72 5.41162 625.631 5.75749 626.315 6.44922C627.007 7.13281 627.353 8.03206 627.353 9.14697V10.0259C627.353 11.092 627.007 11.9668 626.315 12.6504C625.631 13.334 624.728 13.6758 623.605 13.6758C622.506 13.6758 621.599 13.3421 620.883 12.6748C620.175 11.9993 619.821 11.092 619.821 9.95264V9.08594ZM621.896 10.0259C621.896 10.5874 622.051 11.0431 622.36 11.3931C622.677 11.7349 623.092 11.9058 623.605 11.9058C624.11 11.9058 624.516 11.7349 624.826 11.3931C625.135 11.0431 625.29 10.5711 625.29 9.97705V9.08594C625.29 8.52441 625.131 8.06868 624.813 7.71875C624.504 7.36882 624.093 7.19385 623.581 7.19385C623.068 7.19385 622.657 7.37288 622.348 7.73096C622.047 8.08089 621.896 8.54476 621.896 9.12256V10.0259ZM628.366 19.0835C628.366 17.993 628.72 17.11 629.428 16.4346C630.136 15.7591 631.039 15.4214 632.138 15.4214C633.244 15.4214 634.148 15.7591 634.848 16.4346C635.556 17.11 635.91 18.0215 635.91 19.1689V20.0356C635.91 21.0936 635.568 21.9684 634.884 22.6602C634.209 23.3438 633.301 23.6855 632.162 23.6855C631.023 23.6855 630.103 23.3478 629.403 22.6724C628.712 21.9888 628.366 21.0895 628.366 19.9746V19.0835ZM630.441 20.0356C630.441 20.589 630.6 21.0448 630.917 21.4028C631.243 21.7528 631.658 21.9277 632.162 21.9277C632.683 21.9277 633.09 21.7609 633.383 21.4272C633.684 21.0854 633.834 20.6094 633.834 19.999V19.0835C633.834 18.5138 633.676 18.0581 633.358 17.7163C633.041 17.3745 632.634 17.2036 632.138 17.2036C631.633 17.2036 631.222 17.3745 630.905 17.7163C630.596 18.0581 630.441 18.5301 630.441 19.1323V20.0356ZM624.215 22.1108L622.689 21.2319L631.369 7.34033L632.895 8.21924L624.215 22.1108Z" fill="#313131"/>
<path d="M449.402 81.7498H454.041V84.4597H449.402V89.7454H446.521V84.4597H441.858V81.7498H446.521V76.8059H449.402V81.7498ZM465.955 81.2859H467.762C468.673 81.2778 469.393 81.0417 469.922 80.5779C470.459 80.114 470.728 79.4426 470.728 78.5637C470.728 77.7174 470.504 77.0623 470.057 76.5984C469.617 76.1264 468.942 75.8904 468.03 75.8904C467.233 75.8904 466.578 76.1223 466.065 76.5862C465.552 77.0419 465.296 77.6401 465.296 78.3806H462.33C462.33 77.4692 462.57 76.6391 463.05 75.8904C463.538 75.1417 464.214 74.5598 465.076 74.1448C465.947 73.7216 466.919 73.51 467.994 73.51C469.768 73.51 471.159 73.9576 472.168 74.8528C473.186 75.7398 473.694 76.9768 473.694 78.5637C473.694 79.3612 473.438 80.114 472.925 80.822C472.421 81.5219 471.766 82.0509 470.96 82.4089C471.937 82.7426 472.677 83.2675 473.182 83.9836C473.694 84.6998 473.951 85.5543 473.951 86.5471C473.951 88.1422 473.401 89.4117 472.303 90.3557C471.212 91.2997 469.776 91.7717 467.994 91.7717C466.285 91.7717 464.885 91.316 463.794 90.4045C462.704 89.4931 462.159 88.2805 462.159 86.7668H465.125C465.125 87.5481 465.385 88.1829 465.906 88.6711C466.435 89.1594 467.143 89.4036 468.03 89.4036C468.95 89.4036 469.674 89.1594 470.203 88.6711C470.732 88.1829 470.997 87.4749 470.997 86.5471C470.997 85.6112 470.72 84.891 470.167 84.3865C469.613 83.8819 468.791 83.6296 467.701 83.6296H465.955V81.2859ZM488.318 84.0447C488.318 86.6 487.838 88.5287 486.878 89.8308C485.926 91.1248 484.473 91.7717 482.52 91.7717C480.599 91.7717 479.151 91.141 478.174 89.8796C477.206 88.6101 476.709 86.7343 476.685 84.2522V81.176C476.685 78.6207 477.161 76.7042 478.113 75.4265C479.074 74.1488 480.534 73.51 482.496 73.51C484.441 73.51 485.889 74.1326 486.841 75.3777C487.802 76.6228 488.294 78.4864 488.318 80.9685V84.0447ZM485.352 80.7244C485.352 79.0561 485.124 77.8354 484.668 77.0623C484.213 76.281 483.488 75.8904 482.496 75.8904C481.527 75.8904 480.815 76.2607 480.359 77.0012C479.904 77.7336 479.664 78.8811 479.639 80.4436V84.4719C479.639 86.1321 479.871 87.3691 480.335 88.1829C480.799 88.9967 481.527 89.4036 482.52 89.4036C483.472 89.4036 484.176 89.0292 484.632 88.2805C485.088 87.5237 485.328 86.3437 485.352 84.7405V80.7244ZM490.821 77.1721C490.821 76.0979 491.167 75.219 491.858 74.5354C492.55 73.8437 493.458 73.4978 494.581 73.4978C495.72 73.4978 496.631 73.8437 497.315 74.5354C498.007 75.219 498.353 76.1182 498.353 77.2332V78.1121C498.353 79.1781 498.007 80.053 497.315 80.7366C496.631 81.4202 495.728 81.762 494.605 81.762C493.506 81.762 492.599 81.4283 491.883 80.761C491.175 80.0855 490.821 79.1781 490.821 78.0388V77.1721ZM492.896 78.1121C492.896 78.6736 493.051 79.1293 493.36 79.4792C493.677 79.821 494.092 79.9919 494.605 79.9919C495.11 79.9919 495.516 79.821 495.826 79.4792C496.135 79.1293 496.29 78.6573 496.29 78.0632V77.1721C496.29 76.6106 496.131 76.1549 495.813 75.8049C495.504 75.455 495.093 75.28 494.581 75.28C494.068 75.28 493.657 75.4591 493.348 75.8171C493.047 76.1671 492.896 76.6309 492.896 77.2087V78.1121ZM499.366 87.1697C499.366 86.0792 499.72 85.1962 500.428 84.5208C501.136 83.8453 502.039 83.5076 503.138 83.5076C504.244 83.5076 505.148 83.8453 505.848 84.5208C506.556 85.1962 506.91 86.1077 506.91 87.2551V88.1218C506.91 89.1798 506.568 90.0546 505.884 90.7463C505.209 91.4299 504.301 91.7717 503.162 91.7717C502.023 91.7717 501.103 91.434 500.403 90.7585C499.712 90.075 499.366 89.1757 499.366 88.0608V87.1697ZM501.441 88.1218C501.441 88.6752 501.6 89.1309 501.917 89.489C502.243 89.8389 502.658 90.0139 503.162 90.0139C503.683 90.0139 504.09 89.8471 504.383 89.5134C504.684 89.1716 504.834 88.6956 504.834 88.0852V87.1697C504.834 86.6 504.676 86.1443 504.358 85.8025C504.041 85.4607 503.634 85.2898 503.138 85.2898C502.633 85.2898 502.222 85.4607 501.905 85.8025C501.596 86.1443 501.441 86.6163 501.441 87.2185V88.1218ZM495.215 90.197L493.689 89.3181L502.369 75.4265L503.895 76.3054L495.215 90.197Z" fill="#313131"/>
<path d="M316.402 133.816H321.041V136.526H316.402V141.811H313.521V136.526H308.858V133.816H313.521V128.872H316.402V133.816ZM341.476 143.594H329.525V141.555L335.445 135.097C336.3 134.145 336.906 133.352 337.264 132.717C337.63 132.074 337.813 131.431 337.813 130.788C337.813 129.942 337.573 129.258 337.093 128.738C336.621 128.217 335.982 127.956 335.177 127.956C334.216 127.956 333.472 128.249 332.943 128.835C332.414 129.421 332.149 130.223 332.149 131.24H329.183C329.183 130.158 329.427 129.185 329.916 128.323C330.412 127.452 331.116 126.776 332.027 126.296C332.947 125.816 334.005 125.576 335.201 125.576C336.926 125.576 338.285 126.011 339.278 126.882C340.279 127.745 340.78 128.941 340.78 130.471C340.78 131.358 340.528 132.29 340.023 133.266C339.527 134.235 338.709 135.337 337.569 136.574L333.224 141.225H341.476V143.594ZM355.318 136.111C355.318 138.666 354.838 140.595 353.878 141.897C352.926 143.191 351.473 143.838 349.52 143.838C347.599 143.838 346.151 143.207 345.174 141.946C344.206 140.676 343.709 138.8 343.685 136.318V133.242C343.685 130.687 344.161 128.77 345.113 127.492C346.074 126.215 347.534 125.576 349.496 125.576C351.441 125.576 352.889 126.198 353.841 127.444C354.802 128.689 355.294 130.552 355.318 133.034V136.111ZM352.352 132.79C352.352 131.122 352.124 129.901 351.668 129.128C351.213 128.347 350.488 127.956 349.496 127.956C348.527 127.956 347.815 128.327 347.359 129.067C346.904 129.8 346.664 130.947 346.639 132.51V136.538C346.639 138.198 346.871 139.435 347.335 140.249C347.799 141.063 348.527 141.469 349.52 141.469C350.472 141.469 351.176 141.095 351.632 140.346C352.088 139.59 352.328 138.41 352.352 136.806V132.79ZM357.821 129.238C357.821 128.164 358.167 127.285 358.858 126.601C359.55 125.91 360.458 125.564 361.581 125.564C362.72 125.564 363.631 125.91 364.315 126.601C365.007 127.285 365.353 128.184 365.353 129.299V130.178C365.353 131.244 365.007 132.119 364.315 132.802C363.631 133.486 362.728 133.828 361.605 133.828C360.506 133.828 359.599 133.494 358.883 132.827C358.175 132.151 357.821 131.244 357.821 130.105V129.238ZM359.896 130.178C359.896 130.74 360.051 131.195 360.36 131.545C360.677 131.887 361.092 132.058 361.605 132.058C362.11 132.058 362.516 131.887 362.826 131.545C363.135 131.195 363.29 130.723 363.29 130.129V129.238C363.29 128.677 363.131 128.221 362.813 127.871C362.504 127.521 362.093 127.346 361.581 127.346C361.068 127.346 360.657 127.525 360.348 127.883C360.047 128.233 359.896 128.697 359.896 129.275V130.178ZM366.366 139.236C366.366 138.145 366.72 137.262 367.428 136.587C368.136 135.911 369.039 135.573 370.138 135.573C371.244 135.573 372.148 135.911 372.848 136.587C373.556 137.262 373.91 138.174 373.91 139.321V140.188C373.91 141.246 373.568 142.121 372.884 142.812C372.209 143.496 371.301 143.838 370.162 143.838C369.023 143.838 368.103 143.5 367.403 142.824C366.712 142.141 366.366 141.242 366.366 140.127V139.236ZM368.441 140.188C368.441 140.741 368.6 141.197 368.917 141.555C369.243 141.905 369.658 142.08 370.162 142.08C370.683 142.08 371.09 141.913 371.383 141.579C371.684 141.238 371.834 140.761 371.834 140.151V139.236C371.834 138.666 371.676 138.21 371.358 137.868C371.041 137.527 370.634 137.356 370.138 137.356C369.633 137.356 369.222 137.527 368.905 137.868C368.596 138.21 368.441 138.682 368.441 139.284V140.188ZM362.215 142.263L360.689 141.384L369.369 127.492L370.895 128.371L362.215 142.263Z" fill="#313131"/>
<path d="M182.402 209.912H187.041V212.622H182.402V217.908H179.521V212.622H174.858V209.912H179.521V204.968H182.402V209.912ZM203.557 219.69H200.603V205.42L196.245 206.909V204.407L203.179 201.855H203.557V219.69ZM221.318 212.207C221.318 214.762 220.838 216.691 219.878 217.993C218.926 219.287 217.473 219.934 215.52 219.934C213.599 219.934 212.151 219.303 211.174 218.042C210.206 216.772 209.709 214.897 209.685 212.415V209.338C209.685 206.783 210.161 204.867 211.113 203.589C212.074 202.311 213.534 201.672 215.496 201.672C217.441 201.672 218.889 202.295 219.841 203.54C220.802 204.785 221.294 206.649 221.318 209.131V212.207ZM218.352 208.887C218.352 207.218 218.124 205.998 217.668 205.225C217.213 204.443 216.488 204.053 215.496 204.053C214.527 204.053 213.815 204.423 213.359 205.164C212.904 205.896 212.664 207.043 212.639 208.606V212.634C212.639 214.294 212.871 215.531 213.335 216.345C213.799 217.159 214.527 217.566 215.52 217.566C216.472 217.566 217.176 217.192 217.632 216.443C218.088 215.686 218.328 214.506 218.352 212.903V208.887ZM223.821 205.334C223.821 204.26 224.167 203.381 224.858 202.698C225.55 202.006 226.458 201.66 227.581 201.66C228.72 201.66 229.631 202.006 230.315 202.698C231.007 203.381 231.353 204.281 231.353 205.396V206.274C231.353 207.34 231.007 208.215 230.315 208.899C229.631 209.583 228.728 209.924 227.605 209.924C226.506 209.924 225.599 209.591 224.883 208.923C224.175 208.248 223.821 207.34 223.821 206.201V205.334ZM225.896 206.274C225.896 206.836 226.051 207.292 226.36 207.642C226.677 207.983 227.092 208.154 227.605 208.154C228.11 208.154 228.516 207.983 228.826 207.642C229.135 207.292 229.29 206.82 229.29 206.226V205.334C229.29 204.773 229.131 204.317 228.813 203.967C228.504 203.617 228.093 203.442 227.581 203.442C227.068 203.442 226.657 203.621 226.348 203.979C226.047 204.329 225.896 204.793 225.896 205.371V206.274ZM232.366 215.332C232.366 214.242 232.72 213.359 233.428 212.683C234.136 212.008 235.039 211.67 236.138 211.67C237.244 211.67 238.148 212.008 238.848 212.683C239.556 213.359 239.91 214.27 239.91 215.417V216.284C239.91 217.342 239.568 218.217 238.884 218.909C238.209 219.592 237.301 219.934 236.162 219.934C235.023 219.934 234.103 219.596 233.403 218.921C232.712 218.237 232.366 217.338 232.366 216.223V215.332ZM234.441 216.284C234.441 216.838 234.6 217.293 234.917 217.651C235.243 218.001 235.658 218.176 236.162 218.176C236.683 218.176 237.09 218.009 237.383 217.676C237.684 217.334 237.834 216.858 237.834 216.248V215.332C237.834 214.762 237.676 214.307 237.358 213.965C237.041 213.623 236.634 213.452 236.138 213.452C235.633 213.452 235.222 213.623 234.905 213.965C234.596 214.307 234.441 214.779 234.441 215.381V216.284ZM228.215 218.359L226.689 217.48L235.369 203.589L236.895 204.468L228.215 218.359Z" fill="#313131"/>
<line x1="76.5" y1="21.468" x2="76.5" y2="357.894" stroke="#3383EA"/>
<line x1="749" y1="358.394" x2="79" y2="358.394" stroke="#3383EA"/>
</svg>
